<svg width="29" height="28" viewBox="0 0 29 28" fill="none" xmlns="http://www.w3.org/2000/svg">
<g clip-path="url(#clip0)">
<path d="M28.1647 5.31825C27.1173 5.775 26.0013 6.07775 24.8378 6.22475C26.0348 5.51425 26.9483 4.39775 27.3779 3.052C26.2618 3.7135 25.0296 4.18075 23.7164 4.4415C22.6567 3.31975 21.1464 2.625 19.4988 2.625C16.3021 2.625 13.7285 5.2045 13.7285 8.36675C13.7285 8.82175 13.7673 9.25925 13.8623 9.67575C9.06199 9.443 4.8144 7.15575 1.96097 3.6715C1.4628 4.53075 1.1706 5.51425 1.1706 6.573C1.1706 8.561 2.20037 10.3232 3.73534 11.3435C2.80767 11.326 1.8976 11.0583 1.12659 10.6365C1.12659 10.654 1.12659 10.6767 1.12659 10.6995C1.12659 13.489 3.12804 15.806 5.75264 16.3397C5.28264 16.4675 4.7704 16.5287 4.23879 16.5287C3.86913 16.5287 3.49594 16.5077 3.14565 16.4307C3.89377 18.704 6.01669 20.3752 8.54095 20.4295C6.57646 21.9572 4.08212 22.8777 1.38183 22.8777C0.908312 22.8777 0.454156 22.8567 0 22.799C2.55771 24.4387 5.58893 25.375 8.8578 25.375C19.4829 25.375 25.2919 16.625 25.2919 9.0405C25.2919 8.78675 25.2831 8.54175 25.2708 8.2985C26.4167 7.49 27.3796 6.48025 28.1647 5.31825Z" fill="white"/>
</g>
<defs>
<clipPath id="clip0">
<rect width="28.1647" height="28" fill="white"/>
</clipPath>
</defs>
</svg>
