<svg width="28" height="28" viewBox="0 0 28 28" fill="none" xmlns="http://www.w3.org/2000/svg">
<g clip-path="url(#clip0)">
<path d="M27.9727 8.23208C27.9071 6.74433 27.6666 5.72152 27.3219 4.83524C26.9664 3.89447 26.4194 3.0522 25.7028 2.35202C25.0026 1.64095 24.1548 1.08841 23.2249 0.738426C22.3335 0.393784 21.316 0.153198 19.8283 0.0876026C18.3294 0.0164522 17.8536 0 14.0521 0C10.2505 0 9.7747 0.0164522 8.28139 0.0820473C6.79364 0.147642 5.77083 0.388443 4.88476 0.73287C3.94378 1.08841 3.10152 1.63539 2.40134 2.35202C1.69026 3.0522 1.13794 3.90002 0.787742 4.82989C0.443101 5.72152 0.202514 6.73878 0.136919 8.22652C0.0657686 9.72538 0.0493164 10.2012 0.0493164 14.0027C0.0493164 17.8043 0.0657686 18.2801 0.131364 19.7734C0.196959 21.2611 0.437759 22.284 0.7824 23.1702C1.13794 24.111 1.69026 24.9533 2.40134 25.6535C3.10152 26.3645 3.94934 26.9171 4.87921 27.2671C5.77083 27.6117 6.78809 27.8523 8.27605 27.9179C9.76914 27.9837 10.2452 27.9999 14.0467 27.9999C17.8482 27.9999 18.3241 27.9837 19.8174 27.9179C21.3051 27.8523 22.3279 27.6117 23.214 27.2671C25.0957 26.5395 26.5835 25.0518 27.311 23.1702C27.6554 22.2786 27.8962 21.2611 27.9618 19.7734C28.0274 18.2801 28.0439 17.8043 28.0439 14.0027C28.0439 10.2012 28.0383 9.72538 27.9727 8.23208ZM25.4513 19.664C25.391 21.0315 25.1613 21.7699 24.9699 22.2622C24.4994 23.482 23.5313 24.4501 22.3115 24.9206C21.8192 25.112 21.0754 25.3417 19.7133 25.4018C18.2365 25.4676 17.7935 25.4838 14.0576 25.4838C10.3217 25.4838 9.8732 25.4676 8.40169 25.4018C7.03423 25.3417 6.29581 25.112 5.80352 24.9206C5.1965 24.6962 4.64396 24.3407 4.19548 23.8758C3.73055 23.4217 3.37501 22.8747 3.15066 22.2677C2.95922 21.7754 2.72953 21.0315 2.66949 19.6696C2.60368 18.1927 2.58744 17.7496 2.58744 14.0136C2.58744 10.2777 2.60368 9.82922 2.66949 8.35793C2.72953 6.99047 2.95922 6.25205 3.15066 5.75976C3.37501 5.15253 3.73055 4.6002 4.20104 4.15151C4.65486 3.68657 5.20184 3.33103 5.80908 3.1069C6.30136 2.91546 7.04534 2.68577 8.40724 2.62551C9.88409 2.55992 10.3272 2.54347 14.0629 2.54347C17.8044 2.54347 18.2474 2.55992 19.7189 2.62551C21.0863 2.68577 21.8247 2.91546 22.317 3.1069C22.9241 3.33103 23.4766 3.68657 23.9251 4.15151C24.39 4.60555 24.7455 5.15253 24.9699 5.75976C25.1613 6.25205 25.391 6.99581 25.4513 8.35793C25.5169 9.83478 25.5333 10.2777 25.5333 14.0136C25.5333 17.7496 25.5169 18.1872 25.4513 19.664Z" fill="white"/>
<path d="M14.0519 6.80981C10.081 6.80981 6.85913 10.0315 6.85913 14.0026C6.85913 17.9738 10.081 21.1954 14.0519 21.1954C18.0231 21.1954 21.2447 17.9738 21.2447 14.0026C21.2447 10.0315 18.0231 6.80981 14.0519 6.80981ZM14.0519 18.6684C11.4758 18.6684 9.38614 16.579 9.38614 14.0026C9.38614 11.4263 11.4758 9.33683 14.0519 9.33683C16.6283 9.33683 18.7177 11.4263 18.7177 14.0026C18.7177 16.579 16.6283 18.6684 14.0519 18.6684V18.6684Z" fill="white"/>
<path d="M23.2087 6.52563C23.2087 7.45293 22.4568 8.20482 21.5293 8.20482C20.602 8.20482 19.8501 7.45293 19.8501 6.52563C19.8501 5.59811 20.602 4.84644 21.5293 4.84644C22.4568 4.84644 23.2087 5.59811 23.2087 6.52563V6.52563Z" fill="white"/>
</g>
<defs>
<clipPath id="clip0">
<rect width="28" height="28" fill="white"/>
</clipPath>
</defs>
</svg>
