<svg width="129" height="42" viewBox="0 0 129 42" fill="none" xmlns="http://www.w3.org/2000/svg">
<path d="M15.6356 4.24467C15.6356 6.58894 13.7352 8.48934 11.3909 8.48934C9.04664 8.48934 7.14624 6.58894 7.14624 4.24467C7.14624 1.9004 9.04664 0 11.3909 0C13.7352 0 15.6356 1.9004 15.6356 4.24467Z" fill="#66C99C"/>
<path d="M15.6356 37.7552C15.6356 40.0994 13.7352 41.9998 11.3909 41.9998C9.04664 41.9998 7.14624 40.0994 7.14624 37.7552C7.14624 35.4109 9.04664 33.5105 11.3909 33.5105C13.7352 33.5105 15.6356 35.4109 15.6356 37.7552Z" fill="#EA4A98"/>
<path fill-rule="evenodd" clip-rule="evenodd" d="M17.0914 6.81721C17.3703 6.30351 18.0295 6.06701 18.4867 6.43117C21.1075 8.51864 22.7872 11.7374 22.7872 15.3483C22.7872 15.791 22.762 16.2277 22.7128 16.6572C22.6284 17.3955 21.6998 17.5881 21.1828 17.0544C18.948 14.7474 15.905 13.2279 12.5104 12.9526C11.8955 12.9027 11.3936 13.4076 11.3936 14.0245C11.3936 14.6414 11.8952 15.1358 12.5092 15.1954C16.2081 15.5549 19.389 17.683 21.1956 20.7234C21.2755 20.858 21.2755 21.0255 21.1955 21.1601C19.2097 24.5021 15.5633 26.7419 11.3936 26.7419C5.10098 26.7419 0 21.6407 0 15.3483C0 11.7374 1.67973 8.51864 4.30048 6.43117C4.75767 6.06701 5.41692 6.30351 5.69576 6.81721C6.79257 8.83782 8.93286 10.2101 11.3936 10.2101C13.8543 10.2101 15.9946 8.83782 17.0914 6.81721Z" fill="#66C99C"/>
<path fill-rule="evenodd" clip-rule="evenodd" d="M11.3945 31.7742C8.93375 31.7742 6.79346 33.1464 5.69665 35.167C5.41781 35.6807 4.75857 35.9172 4.30137 35.5531C1.68062 33.4656 0.000891569 30.2469 0.000891884 26.6359C0.000891923 26.1933 0.0261322 25.7566 0.0752514 25.3271C0.159691 24.5888 1.08825 24.3961 1.60528 24.9299C3.84005 27.2369 6.88305 28.7563 10.2777 29.0317C10.8926 29.0815 11.3945 28.5767 11.3945 27.9598C11.3945 27.3428 10.8929 26.8485 10.2789 26.7888C6.58002 26.4293 3.3991 24.3012 1.59253 21.2609C1.51256 21.1263 1.51257 20.9588 1.59254 20.8242C3.57837 17.4821 7.22482 15.2423 11.3945 15.2423C17.6871 15.2423 22.7881 20.3435 22.7881 26.6359C22.7881 30.2469 21.1084 33.4656 18.4876 35.5531C18.0304 35.9172 17.3712 35.6807 17.0923 35.167C15.9955 33.1464 13.8552 31.7742 11.3945 31.7742Z" fill="#EA4A98"/>
<path fill-rule="evenodd" clip-rule="evenodd" d="M1.46069 20.9991C3.41431 17.532 7.13062 15.1906 11.3938 15.1906C15.657 15.1906 19.3733 17.532 21.3269 20.9991C19.3733 24.4661 15.657 26.8076 11.3938 26.8076C7.13062 26.8076 3.41431 24.4661 1.46069 20.9991Z" fill="#505AE0"/>
<path fill-rule="evenodd" clip-rule="evenodd" d="M40.4345 12.5111C43.2955 12.5111 44.8557 13.8119 46.183 14.9185L46.243 14.9686L44.2324 17.2026C44.0998 17.1363 43.9427 17.0553 43.7683 16.9654C42.7668 16.449 41.1956 15.6388 40.4345 15.6388C39.3175 15.6388 38.2005 16.5324 38.2005 17.2026C38.2005 18.0962 38.6473 18.543 41.5515 19.4366C44.4558 20.3302 46.9132 21.6707 46.9132 24.5749C46.9132 27.4792 44.2324 29.2664 40.4345 29.2664C37.3962 29.2664 35.1473 27.4792 34.4026 26.5856L36.4132 24.3515C36.7856 24.9473 38.1111 26.1387 40.4345 26.1387C42.7579 26.1387 43.3387 25.0217 43.3387 24.5749C43.3387 24.1281 43.1153 23.4579 40.4345 22.5643C37.7536 21.6707 35.0728 20.3302 35.0728 17.6494C35.0728 14.9686 37.5302 12.5111 40.4345 12.5111ZM50.7111 13.1813L56.2962 29.043H59.2004L62.7749 18.3196L66.5727 29.043H69.477L75.0621 13.1813H71.0408L67.6898 23.6813L64.1153 13.1813H61.6579L58.0834 23.6813L54.7323 13.1813H50.7111ZM77.9663 13.1813L83.9982 22.3409V28.8196H87.3493V22.3409L82.211 13.1813H77.9663ZM89.5833 13.1813L87.1259 16.9792L88.9131 20.1068L93.3812 13.1813H89.5833ZM100.307 13.1813H96.5089L102.764 28.8196H106.115L112.371 13.1813H108.573L104.551 24.1281L100.307 13.1813ZM117.062 13.1813V28.8196H128.456V25.6919H120.636V13.1813H117.062Z" fill="#212331"/>
</svg>
