<svg width="129" height="42" viewBox="0 0 129 42" fill="none" xmlns="http://www.w3.org/2000/svg">
<path d="M15.6361 4.24469C15.6361 6.58897 13.7357 8.48938 11.3914 8.48938C9.04714 8.48938 7.14673 6.58897 7.14673 4.24469C7.14673 1.90041 9.04714 0 11.3914 0C13.7357 0 15.6361 1.90041 15.6361 4.24469Z" fill="#33CC99"/>
<path d="M15.6361 37.7554C15.6361 40.0997 13.7357 42.0001 11.3914 42.0001C9.04714 42.0001 7.14673 40.0997 7.14673 37.7554C7.14673 35.4112 9.04714 33.5107 11.3914 33.5107C13.7357 33.5107 15.6361 35.4112 15.6361 37.7554Z" fill="#FF389B"/>
<path fill-rule="evenodd" clip-rule="evenodd" d="M17.0915 6.81734C17.3703 6.30363 18.0296 6.06713 18.4868 6.43129C21.1075 8.51878 22.7873 11.7375 22.7873 15.3485C22.7873 15.7911 22.762 16.2279 22.7129 16.6573C22.6285 17.3956 21.6999 17.5883 21.1829 17.0546C18.9481 14.7475 15.9051 13.2281 12.5104 12.9527C11.8955 12.9029 11.3936 13.4077 11.3936 14.0247C11.3936 14.6416 11.8952 15.1359 12.5093 15.1956C16.2081 15.5551 19.3891 17.6832 21.1956 20.7236C21.2756 20.8582 21.2756 21.0257 21.1956 21.1603C19.2098 24.5023 15.5633 26.7421 11.3936 26.7421C5.101 26.7421 0 21.6409 0 15.3485C0 11.7375 1.67974 8.51878 4.3005 6.43129C4.75769 6.06713 5.41694 6.30363 5.69578 6.81733C6.79259 8.83795 8.9329 10.2102 11.3936 10.2102C13.8544 10.2102 15.9947 8.83795 17.0915 6.81734Z" fill="#33CC99"/>
<path fill-rule="evenodd" clip-rule="evenodd" d="M11.3944 31.7741C8.9337 31.7741 6.7934 33.1463 5.69658 35.1669C5.41774 35.6806 4.75849 35.9171 4.3013 35.553C1.68054 33.4655 0.000801894 30.2467 0.000802209 26.6357C0.000802248 26.1931 0.0260426 25.7564 0.0751621 25.3269C0.159602 24.5886 1.08817 24.3959 1.6052 24.9297C3.83997 27.2367 6.88299 28.7562 10.2777 29.0315C10.8926 29.0814 11.3944 28.5765 11.3944 27.9596C11.3944 27.3427 10.8928 26.8483 10.2788 26.7886C6.57995 26.4292 3.39902 24.3011 1.59245 21.2607C1.51247 21.1261 1.51248 20.9586 1.59246 20.824C3.57829 17.4819 7.22476 15.2421 11.3944 15.2421C17.6871 15.2421 22.7881 20.3433 22.7881 26.6358C22.7881 30.2467 21.1084 33.4655 18.4876 35.553C18.0304 35.9171 17.3711 35.6806 17.0923 35.1669C15.9955 33.1463 13.8552 31.7741 11.3944 31.7741Z" fill="#FF389B"/>
<path fill-rule="evenodd" clip-rule="evenodd" d="M1.46118 20.9991C3.41481 17.532 7.13113 15.1906 11.3943 15.1906C15.6575 15.1906 19.3739 17.532 21.3275 20.9991C19.3739 24.4661 15.6575 26.8076 11.3943 26.8076C7.13113 26.8076 3.41481 24.4661 1.46118 20.9991Z" fill="#505AE0"/>
<path fill-rule="evenodd" clip-rule="evenodd" d="M40.4345 12.5112C43.2955 12.5112 44.8558 13.812 46.183 14.9187L46.243 14.9687L44.2324 17.2027C44.0998 17.1365 43.9427 17.0554 43.7683 16.9655C42.7669 16.4491 41.1956 15.6389 40.4345 15.6389C39.3175 15.6389 38.2005 16.5325 38.2005 17.2027C38.2005 18.0964 38.6473 18.5432 41.5515 19.4368C44.4558 20.3304 46.9133 21.6708 46.9133 24.5751C46.9133 27.4794 44.2324 29.2666 40.4345 29.2666C37.3962 29.2666 35.1473 27.4794 34.4026 26.5857L36.4132 24.3517C36.7856 24.9474 38.1111 26.1389 40.4345 26.1389C42.7579 26.1389 43.3388 25.0219 43.3388 24.5751C43.3388 24.1283 43.1154 23.4581 40.4345 22.5644C37.7537 21.6708 35.0728 20.3304 35.0728 17.6495C35.0728 14.9687 37.5303 12.5112 40.4345 12.5112ZM50.7111 13.1814L56.2963 29.0432H59.2005L62.775 18.3198L66.5729 29.0432H69.4771L75.0623 13.1814H71.041L67.6899 23.6815L64.1154 13.1814H61.658L58.0835 23.6815L54.7324 13.1814H50.7111ZM77.9665 13.1814L83.9984 22.341V28.8198H87.3495V22.341L82.2112 13.1814H77.9665ZM89.5836 13.1814L87.1261 16.9793L88.9133 20.107L93.3814 13.1814H89.5836ZM100.307 13.1814H96.5091L102.764 28.8198H106.116L112.371 13.1814H108.573L104.552 24.1283L100.307 13.1814ZM117.062 13.1814V28.8198H128.456V25.6921H120.637V13.1814H117.062Z" fill="white"/>
</svg>
